# xmcd
#
# Track frame offsets: 
#        150
#        75635
#        122477
#        191645
#        205282
#        215735
#        225430
#        246890
#
# Disc length: 3456 seconds
#
# Revision: 4
# Processed by: cddbd v1.5.2PL0 Copyright (c) Steve Scherf et al.
# Submitted via: ExactAudioCopy v1.0b3
#
DISCID=6a0d7e08
DTITLE=Leif Ove Andsnes and Oslo Philharmonica - Rachmaninov Piano Conce
DTITLE=rto No.3, and 5 Etudes-tableaux
DYEAR=1995
DGENRE=Classical
TTITLE0=Piano Concerto No.3 in D minor Op.30 - I. Allegro ma non tanto
TTITLE1=Piano Concerto No.3 in D minor Op.30 - II. Intermezzo (Adagio)
TTITLE2=Piano Concerto No.3 in D minor Op.30 - III. Finale (Alla breve
TTITLE2=)
TTITLE3=Etudes-tableaux Op.39 - No.6 in A minor (Allegro)
TTITLE4=Etudes-tableaux Op.39 - No.1 in F minor (Allegro non troppo)
TTITLE5=Etudes-tableaux Op.39 - No.2 in C (Allegro)
TTITLE6=Etudes-tableaux Op.39 - No.3 in E flat minor (Grave)
TTITLE7=Etudes-tableaux Op.39 - No.6 in C sharp minor (Grave)
EXTD=
EXTT0=
EXTT1=
EXTT2=
EXTT3=
EXTT4=
EXTT5=
EXTT6=
EXTT7=
PLAYORDER=
